<svg version="1.1" id="Layer_1" xmlns="http://www.w3.org/2000/svg" xmlns:xlink="http://www.w3.org/1999/xlink" x="0px" y="0px"
	 width="100%" viewBox="0 0 214 214" enable-background="new 0 0 214 214" xml:space="preserve">
<path fill="#010101" opacity="1.000000" stroke="none" 
	d="
M1.000000,80.000000 
	C1.000000,53.333336 1.000000,27.166670 1.000000,1.000004 
	C72.333328,1.000002 143.666656,1.000002 215.000000,1.000001 
	C215.000000,72.333321 215.000000,143.666641 215.000000,214.999969 
	C143.666687,214.999985 72.333359,214.999985 1.000021,215.000000 
	C1.000000,170.166672 1.000000,125.333336 1.000000,80.000000 
M38.396530,197.431046 
	C39.276283,197.917404 40.156036,198.403748 41.050529,198.968124 
	C41.050529,198.968124 41.128475,198.952881 41.493126,199.569748 
	C46.948158,202.894440 52.883537,203.523590 59.735394,202.792587 
	C60.176819,202.821289 60.618244,202.849976 61.558651,203.572388 
	C63.530617,203.730392 65.502525,204.024628 67.474556,204.025360 
	C87.799255,204.032944 108.124962,204.103226 128.448303,203.922501 
	C139.546967,203.823792 150.650574,203.445663 161.733978,202.855804 
	C166.590042,202.597366 171.622131,202.111649 175.574921,198.022171 
	C175.574921,198.022171 175.796600,197.803528 176.469803,197.853958 
	C177.332214,196.945541 178.194641,196.037140 179.752472,194.984909 
	C188.970322,187.916733 194.611542,178.731766 196.568390,166.651703 
	C197.022247,164.803909 197.852798,162.959503 197.869507,161.107742 
	C197.987671,148.006973 198.025269,134.903961 197.911163,121.803207 
	C197.842178,113.883530 197.455246,105.966614 197.706360,97.467377 
	C197.480576,91.653923 197.254791,85.840462 196.966095,79.372383 
	C196.976624,78.934288 196.987152,78.496201 197.660248,77.509537 
	C197.435608,71.976242 197.210968,66.442955 196.958023,59.998505 
	C196.959412,57.840534 197.380539,55.577030 196.870316,53.547695 
	C195.953796,49.902515 194.478058,46.397949 193.270004,42.489204 
	C193.270004,42.489204 193.260315,42.142250 193.810577,42.040375 
	C192.572968,39.462334 191.335358,36.884293 190.018753,33.561264 
	C183.339615,24.422346 175.519943,17.115883 163.073441,16.248026 
	C159.582336,15.764183 156.092819,14.873374 152.599899,14.859940 
	C120.400475,14.736078 88.200272,14.713590 56.000984,14.838232 
	C53.269341,14.848807 50.542641,16.137156 47.883785,16.838028 
	C47.883785,16.838028 47.882423,16.767635 47.239029,16.766823 
	C36.113396,19.900923 27.766872,26.329430 22.990063,37.435715 
	C22.990063,37.435715 22.946499,37.763340 22.250969,38.093201 
	C20.879578,42.010529 18.631037,45.860210 18.322590,49.859516 
	C17.713345,57.758991 18.178053,65.741287 17.427378,74.196793 
	C17.428787,80.125099 17.430197,86.053398 17.343506,92.431862 
	C17.343506,92.431862 17.427879,92.882729 17.127321,93.795761 
	C17.183027,99.262489 17.238733,104.729218 17.193142,110.973282 
	C17.525269,121.127388 17.957203,131.279510 18.159470,141.436203 
	C18.336731,150.337265 18.204170,159.244385 18.361589,168.146118 
	C18.379356,169.150864 19.390589,170.138046 20.006536,171.921707 
	C20.724752,174.318100 21.442970,176.714478 22.032095,179.813095 
	C24.349991,183.002289 26.667887,186.191498 29.083332,189.687592 
	C29.207588,189.882706 29.384611,189.993515 29.833998,190.625076 
	C30.326712,191.030457 30.819427,191.435837 31.321651,192.001709 
	C31.321651,192.001709 31.481787,192.016052 31.751120,192.694077 
	C33.865147,194.091660 35.979176,195.489243 38.003052,196.998779 
	C38.003052,196.998779 38.090519,196.887299 38.396530,197.431046 
z"/>
<path fill="#1463F3" opacity="1.000000" stroke="none" 
	d="
M22.161186,179.110870 
	C21.442970,176.714478 20.724752,174.318100 19.980686,171.050125 
	C19.950081,152.455963 19.945326,134.733383 20.327612,116.925644 
	C28.485329,115.165283 31.542688,117.975319 30.714542,126.035851 
	C30.054033,132.464737 34.752254,136.455414 37.258160,142.998520 
	C38.743523,139.449875 39.557674,137.504791 40.371830,135.559708 
	C40.833477,135.584076 41.295124,135.608444 41.756771,135.632797 
	C42.481754,137.738495 43.206741,139.844177 43.931725,141.949875 
	C44.521854,141.942535 45.111984,141.935211 45.702114,141.927887 
	C46.401260,135.142776 47.184555,128.364914 47.769585,121.569977 
	C48.151321,117.136230 47.968922,112.636887 48.616711,108.252251 
	C48.845753,106.701958 50.786186,105.404510 51.960217,104.461105 
	C51.969524,120.620598 51.963898,136.310608 51.666130,152.173004 
	C49.420536,154.460266 49.526264,156.356735 51.979965,158.335938 
	C51.984974,159.108688 51.984268,159.550293 51.773521,160.082047 
	C51.705643,160.784119 51.847805,161.396011 51.996872,162.337067 
	C52.003292,163.105118 52.002811,163.544052 51.936150,164.104874 
	C51.786869,164.505844 51.831673,164.766205 52.010181,165.240891 
	C52.015980,165.473938 52.019279,165.940170 52.026207,166.331223 
	C53.992016,174.574921 59.166210,182.139557 66.372665,182.075760 
	C77.501976,181.977234 88.636681,182.713028 99.771988,182.970108 
	C105.062225,183.092270 110.399040,183.312485 115.640640,182.770966 
	C120.004372,182.320114 124.259865,180.821487 126.996521,180.163589 
	C130.744934,180.536072 133.181137,180.714111 135.596436,181.044815 
	C136.832382,181.214035 138.013916,181.772461 139.249573,181.953827 
	C142.919037,182.492462 146.749054,183.775894 150.240723,183.172760 
	C153.770889,182.562973 156.895569,179.866684 160.335114,178.407974 
	C165.070740,176.399628 172.446823,163.127625 171.367783,158.047058 
	C171.275360,157.611801 170.777161,157.262756 170.453979,156.493317 
	C170.634918,155.384445 170.829330,154.655884 171.218185,153.619324 
	C171.404572,150.175140 175.642456,146.205612 169.409210,143.982483 
	C166.600525,136.692886 161.416595,132.158859 154.750870,128.569901 
	C147.997986,124.615654 140.338867,125.258743 135.615509,130.000916 
	C128.416153,132.695709 125.153961,138.707977 123.685776,144.898911 
	C122.341217,150.568512 123.400047,156.808075 123.115417,163.042023 
	C121.136238,164.255920 119.441490,165.224258 117.302940,166.170807 
	C100.870209,166.142258 84.881210,166.107956 68.892426,166.153503 
	C65.921577,166.161972 63.602741,165.491165 62.907585,161.728165 
	C62.908497,130.411530 62.882736,99.583855 62.904556,68.547073 
	C62.952141,68.337975 63.139023,67.951942 63.496071,68.053116 
	C67.937927,69.093834 72.022728,70.033379 76.290138,71.225571 
	C77.366501,71.941902 78.260262,72.405586 79.172226,72.896172 
	C79.190437,72.923073 79.135117,72.957146 79.117409,73.349243 
	C80.054070,79.094910 81.716454,80.233360 87.746880,79.966835 
	C96.182327,79.594025 104.645302,79.595154 113.050789,78.890846 
	C117.749199,78.497147 122.355232,77.001007 127.320663,75.953995 
	C128.093185,74.605850 128.547928,73.305351 129.002930,71.754257 
	C129.004532,71.336624 129.005890,71.169571 129.405243,71.018600 
	C133.865631,71.691887 137.928024,72.349075 141.993958,73.474213 
	C142.001312,87.164391 141.964752,100.386894 142.050369,113.608612 
	C142.063950,115.704659 142.628036,117.797150 143.266068,120.110367 
	C145.174667,120.561333 146.754807,120.793205 148.585327,120.967850 
	C149.431808,120.608582 150.027893,120.306534 150.860291,120.082932 
	C151.742477,119.735847 152.388321,119.310333 153.230408,118.535889 
	C153.620178,116.222244 153.973602,114.258148 153.981339,112.292702 
	C154.032867,99.194046 154.010574,86.095100 154.326935,73.193909 
	C155.578323,78.324203 156.438309,83.273216 157.485718,88.182236 
	C157.972214,90.462364 158.648834,92.739166 159.562820,94.879303 
	C160.321671,96.656212 161.660492,98.175873 162.555237,99.906273 
	C164.478928,103.626732 175.851425,110.066093 179.138519,108.298218 
	C184.467575,105.432129 188.477081,106.764969 193.328247,111.673668 
	C193.978668,106.341400 194.991531,102.176132 194.905029,98.033821 
	C194.520721,79.630493 193.821396,61.233749 193.235992,42.834625 
	C194.478058,46.397949 195.953796,49.902515 196.870316,53.547695 
	C197.380539,55.577030 196.959412,57.840534 196.873169,60.859505 
	C196.858109,67.166374 196.927887,72.612244 196.997681,78.058105 
	C196.987152,78.496201 196.976624,78.934288 196.938843,80.146378 
	C196.744080,86.674438 196.576538,92.428497 196.391022,98.560448 
	C196.322098,121.678955 196.271164,144.419571 196.220230,167.160187 
	C194.611542,178.731766 188.970322,187.916733 179.101791,195.135742 
	C177.566284,196.125565 176.681442,196.964554 175.796600,197.803528 
	C175.796600,197.803528 175.574921,198.022171 175.024109,198.068848 
	C168.680130,199.402863 162.901779,201.720840 157.091293,201.804489 
	C127.208160,202.234695 97.316719,202.076416 67.428375,202.178635 
	C65.304703,202.185898 63.182537,202.635010 61.059669,202.878677 
	C60.618244,202.849976 60.176819,202.821289 59.045509,202.579376 
	C52.613247,201.228409 46.870861,200.090637 41.128475,198.952881 
	C41.128475,198.952881 41.050529,198.968124 40.929573,198.631546 
	C39.902580,197.825745 38.996548,197.356522 38.090515,196.887299 
	C38.090519,196.887299 38.003052,196.998779 37.949417,196.615967 
	C35.757782,194.827454 33.619781,193.421753 31.481785,192.016052 
	C31.481787,192.016052 31.321651,192.001709 31.193476,191.616852 
	C30.581667,190.828018 30.098034,190.424042 29.614401,190.020050 
	C29.384611,189.993515 29.207588,189.882706 28.978016,189.155930 
	C26.635530,185.453140 24.398359,182.281998 22.161186,179.110870 
M128.927383,124.875145 
	C128.927383,124.875145 128.859665,124.863136 129.571548,124.789177 
	C130.258698,123.689842 131.770599,122.004364 131.482086,121.598404 
	C130.523849,120.250107 128.946838,118.485847 127.555908,118.440170 
	C118.776909,118.151863 109.983559,118.241020 101.196754,118.350311 
	C100.406372,118.360146 99.628769,119.397301 98.327515,120.474792 
	C96.445175,125.152489 100.916107,124.582268 103.683113,126.403358 
	C110.869194,126.557800 118.055847,126.812225 125.240791,126.770569 
	C126.472099,126.763428 127.696083,125.493217 128.927383,124.875145 
M80.087784,153.782059 
	C81.014091,154.725021 81.940399,155.667984 82.866707,156.610947 
	C83.667557,155.704330 84.870125,154.919189 85.188400,153.866653 
	C85.926163,151.426834 86.236465,148.857758 86.289421,146.137939 
	C86.289421,146.137939 86.173576,145.672760 86.173576,145.672760 
	C86.173576,145.672760 86.629112,145.520996 86.900429,145.286057 
	C86.945198,145.047592 86.989967,144.809128 87.034744,144.570663 
	C86.839058,144.803802 86.643372,145.036942 85.727600,145.120392 
	C84.150055,143.710663 82.775833,141.569427 80.947693,141.061310 
	C78.150749,140.283936 74.870483,141.034332 74.494499,144.629272 
	C74.081116,148.581757 75.206551,152.188538 80.087784,153.782059 
M132.303360,99.832443 
	C133.328705,96.097961 132.636887,95.012329 128.538544,94.887123 
	C122.909256,94.715134 117.271530,94.808823 111.637421,94.809601 
	C108.003761,94.810097 104.338890,94.588272 100.754387,95.018776 
	C99.594849,95.158051 98.646187,97.053207 97.601067,98.145172 
	C98.832359,99.090347 100.063644,100.035522 101.666016,100.989792 
	C101.666016,100.989792 102.031868,101.052483 102.229012,101.257027 
	C102.229012,101.257027 102.645981,101.277824 102.645981,101.277824 
	C102.645981,101.277824 102.974907,101.032654 103.912735,100.957054 
	C110.304413,100.960548 116.698395,101.065750 123.086731,100.921326 
	C125.949608,100.856598 128.801193,100.291771 132.303360,99.832443 
M80.968513,104.519798 
	C85.000542,100.602745 89.032570,96.685699 93.060257,92.772858 
	C89.603912,89.250107 89.070351,89.305244 86.206673,93.121109 
	C81.880981,98.885124 81.466705,98.967545 75.487000,96.185341 
	C74.719582,95.828285 73.642647,96.136444 72.142433,96.136444 
	C73.431015,100.941185 76.944168,102.860710 80.968513,104.519798 
M82.889565,117.230141 
	C81.922234,117.090523 80.547760,116.475540 80.058723,116.894379 
	C78.044884,118.619148 75.011330,120.490074 74.734322,122.617393 
	C74.216927,126.590759 77.854912,129.045959 81.586311,127.856194 
	C83.221924,127.334663 85.770981,125.749725 85.736641,124.719971 
	C85.660332,122.431305 84.216080,120.188240 82.889565,117.230141 
M100.069862,148.661789 
	C104.193672,148.470581 108.332634,148.417130 112.427971,147.966904 
	C113.206146,147.881348 113.811600,146.224808 114.496735,145.293121 
	C113.633072,144.760223 112.789688,143.811142 111.902176,143.767914 
	C108.431313,143.598862 104.915573,143.436707 101.476929,143.817535 
	C98.841644,144.109375 96.200813,145.176865 100.069862,148.661789 
M45.842972,148.401733 
	C45.073994,147.610550 44.305012,146.819351 43.536037,146.028168 
	C43.195946,147.175491 42.855854,148.322830 42.515759,149.470139 
	C43.580906,149.334915 44.646053,149.199692 45.842972,148.401733 
z"/>
<path fill="#1768F8" opacity="1.000000" stroke="none" 
	d="
M193.252991,42.661915 
	C193.821396,61.233749 194.520721,79.630493 194.905029,98.033821 
	C194.991531,102.176132 193.978668,106.341400 193.328247,111.673668 
	C188.477081,106.764969 184.467575,105.432129 179.138519,108.298218 
	C175.851425,110.066093 164.478928,103.626732 162.555237,99.906273 
	C161.660492,98.175873 160.321671,96.656212 159.562820,94.879303 
	C158.648834,92.739166 157.972214,90.462364 157.485718,88.182236 
	C156.438309,83.273216 155.578323,78.324203 154.321411,72.802261 
	C153.631821,70.535164 153.262436,68.857368 152.721649,66.951248 
	C151.980789,65.752708 151.411301,64.782494 150.617218,63.513607 
	C146.898071,57.905792 141.494736,57.838028 135.951279,57.666615 
	C132.412033,57.557171 127.721565,59.667946 126.235367,53.822590 
	C126.110161,53.330116 124.540703,53.098717 123.609039,52.936115 
	C119.939964,52.295784 117.231064,50.950069 114.786491,47.527836 
	C109.337074,39.899059 99.210854,39.606297 92.710548,46.207855 
	C89.226318,49.746368 86.624687,54.639423 80.276154,53.134209 
	C79.691277,52.995537 78.774185,54.258072 77.609879,55.001701 
	C73.087288,55.436775 68.959961,55.674541 64.846886,56.063038 
	C61.193489,56.408123 57.456200,56.749043 56.099449,61.092186 
	C56.095448,61.056519 56.158234,61.091305 55.820351,61.176769 
	C51.535675,63.813931 50.780243,67.693062 50.836281,72.308304 
	C51.084587,74.750877 51.518215,76.871956 51.961365,79.409859 
	C51.965191,81.216263 51.959492,82.605850 51.587357,84.080460 
	C48.223923,87.269089 47.265930,97.849014 49.798656,100.991547 
	C50.246395,101.547081 51.222263,101.676964 51.959110,102.334846 
	C51.957741,103.108063 51.951511,103.549843 51.945282,103.991623 
	C50.786186,105.404510 48.845753,106.701958 48.616711,108.252251 
	C47.968922,112.636887 48.151321,117.136230 47.769585,121.569977 
	C47.184555,128.364914 46.401260,135.142776 45.702114,141.927887 
	C45.111984,141.935211 44.521854,141.942535 43.931725,141.949875 
	C43.206741,139.844177 42.481754,137.738495 41.756771,135.632797 
	C41.295124,135.608444 40.833477,135.584076 40.371830,135.559708 
	C39.557674,137.504791 38.743523,139.449875 37.258160,142.998520 
	C34.752254,136.455414 30.054033,132.464737 30.714542,126.035851 
	C31.542688,117.975319 28.485329,115.165283 20.322620,116.455811 
	C21.203199,89.978836 16.909678,63.672161 22.946499,37.763340 
	C22.946499,37.763340 22.990063,37.435715 23.356308,37.146072 
	C28.915009,31.960976 33.975735,26.913921 39.357983,22.236876 
	C41.879578,20.045675 45.021587,18.568443 47.882423,16.767635 
	C47.882423,16.767635 47.883785,16.838028 48.316841,16.850229 
	C55.040009,16.550591 61.332211,15.934906 67.619888,15.978063 
	C99.506111,16.196918 131.391159,16.586756 163.276627,16.916681 
	C175.519943,17.115883 183.339615,24.422346 189.890320,34.197754 
	C190.928024,37.270241 192.094177,39.706245 193.260315,42.142250 
	C193.260315,42.142250 193.270004,42.489204 193.252991,42.661915 
M184.439224,101.977608 
	C184.494171,99.935471 184.549133,97.893341 184.604080,95.851204 
	C183.033096,95.844528 180.938614,95.219391 180.026657,95.991310 
	C178.942459,96.909004 178.032135,100.009262 178.528976,100.435417 
	C179.853882,101.571838 181.973389,101.781883 184.439224,101.977608 
z"/>
<path fill="#225FC8" opacity="1.000000" stroke="none" 
	d="
M22.598734,37.928268 
	C16.909678,63.672161 21.203199,89.978836 19.935579,116.540977 
	C19.945326,134.733383 19.950081,152.455963 19.947987,170.655945 
	C19.390589,170.138046 18.379356,169.150864 18.361589,168.146118 
	C18.204170,159.244385 18.336731,150.337265 18.159470,141.436203 
	C17.957203,131.279510 17.525269,121.127388 17.584818,110.382317 
	C17.793621,104.155144 17.610750,98.518936 17.427879,92.882729 
	C17.427879,92.882729 17.343506,92.431862 17.701595,92.001579 
	C18.106020,85.610641 18.152351,79.649994 18.198685,73.689339 
	C18.178053,65.741287 17.713345,57.758991 18.322590,49.859516 
	C18.631037,45.860210 20.879578,42.010529 22.598734,37.928268 
z"/>
<path fill="#376EBA" opacity="1.000000" stroke="none" 
	d="
M61.309158,203.225525 
	C63.182537,202.635010 65.304703,202.185898 67.428375,202.178635 
	C97.316719,202.076416 127.208160,202.234695 157.091293,201.804489 
	C162.901779,201.720840 168.680130,199.402863 174.871948,198.101776 
	C171.622131,202.111649 166.590042,202.597366 161.733978,202.855804 
	C150.650574,203.445663 139.546967,203.823792 128.448303,203.922501 
	C108.124962,204.103226 87.799255,204.032944 67.474556,204.025360 
	C65.502525,204.024628 63.530617,203.730392 61.309158,203.225525 
z"/>
<path fill="#225FC8" opacity="1.000000" stroke="none" 
	d="
M163.175034,16.582354 
	C131.391159,16.586756 99.506111,16.196918 67.619888,15.978063 
	C61.332211,15.934906 55.040009,16.550591 48.281769,16.847164 
	C50.542641,16.137156 53.269341,14.848807 56.000984,14.838232 
	C88.200272,14.713590 120.400475,14.736078 152.599899,14.859940 
	C156.092819,14.873374 159.582336,15.764183 163.175034,16.582354 
z"/>
<path fill="#5C828C" opacity="1.000000" stroke="none" 
	d="
M196.394318,166.905945 
	C196.271164,144.419571 196.322098,121.678955 196.591522,98.527115 
	C196.810043,98.115891 197.211166,98.048462 197.211166,98.048462 
	C197.455246,105.966614 197.842178,113.883530 197.911163,121.803207 
	C198.025269,134.903961 197.987671,148.006973 197.869507,161.107742 
	C197.852798,162.959503 197.022247,164.803909 196.394318,166.905945 
z"/>
<path fill="#225FC8" opacity="1.000000" stroke="none" 
	d="
M47.560726,16.767229 
	C45.021587,18.568443 41.879578,20.045675 39.357983,22.236876 
	C33.975735,26.913921 28.915009,31.960976 23.413815,36.991150 
	C27.766872,26.329430 36.113396,19.900923 47.560726,16.767229 
z"/>
<path fill="#8999B9" opacity="1.000000" stroke="none" 
	d="
M17.813030,73.943069 
	C18.152351,79.649994 18.106020,85.610641 17.745647,91.776505 
	C17.430197,86.053398 17.428787,80.125099 17.813030,73.943069 
z"/>
<path fill="#889BB9" opacity="1.000000" stroke="none" 
	d="
M17.277599,93.339249 
	C17.610750,98.518936 17.793621,104.155144 17.635468,109.993652 
	C17.238733,104.729218 17.183027,99.262489 17.277599,93.339249 
z"/>
<path fill="#376EBA" opacity="1.000000" stroke="none" 
	d="
M41.310799,199.261322 
	C46.870861,200.090637 52.613247,201.228409 58.716423,202.534729 
	C52.883537,203.523590 46.948158,202.894440 41.310799,199.261322 
z"/>
<path fill="#578A99" opacity="1.000000" stroke="none" 
	d="
M197.328949,77.783821 
	C196.927887,72.612244 196.858109,67.166374 196.887329,61.315086 
	C197.210968,66.442955 197.435608,71.976242 197.328949,77.783821 
z"/>
<path fill="#7A8B9B" opacity="1.000000" stroke="none" 
	d="
M197.458771,97.757919 
	C197.211166,98.048462 196.810043,98.115891 196.609528,98.149223 
	C196.576538,92.428497 196.744080,86.674438 196.970306,80.473694 
	C197.254791,85.840462 197.480576,91.653923 197.458771,97.757919 
z"/>
<path fill="#376EBA" opacity="1.000000" stroke="none" 
	d="
M22.096642,179.461975 
	C24.398359,182.281998 26.635530,185.453140 28.929241,189.002472 
	C26.667887,186.191498 24.349991,183.002289 22.096642,179.461975 
z"/>
<path fill="#1463F3" opacity="1.000000" stroke="none" 
	d="
M193.535446,42.091312 
	C192.094177,39.706245 190.928024,37.270241 189.929810,34.570244 
	C191.335358,36.884293 192.572968,39.462334 193.535446,42.091312 
z"/>
<path fill="#376EBA" opacity="1.000000" stroke="none" 
	d="
M31.616451,192.355072 
	C33.619781,193.421753 35.757782,194.827454 37.994492,196.559967 
	C35.979176,195.489243 33.865147,194.091660 31.616451,192.355072 
z"/>
<path fill="#376EBA" opacity="1.000000" stroke="none" 
	d="
M176.133209,197.828735 
	C176.681442,196.964554 177.566284,196.125565 178.754089,195.207657 
	C178.194641,196.037140 177.332214,196.945541 176.133209,197.828735 
z"/>
<path fill="#376EBA" opacity="1.000000" stroke="none" 
	d="
M38.243523,197.159180 
	C38.996548,197.356522 39.902580,197.825745 40.922203,198.592529 
	C40.156036,198.403748 39.276283,197.917404 38.243523,197.159180 
z"/>
<path fill="#376EBA" opacity="1.000000" stroke="none" 
	d="
M29.724199,190.322571 
	C30.098034,190.424042 30.581667,190.828018 31.188721,191.536621 
	C30.819427,191.435837 30.326712,191.030457 29.724199,190.322571 
z"/>
<path fill="#05070A" opacity="1.000000" stroke="none" 
	d="
M78.011353,54.869965 
	C78.774185,54.258072 79.691277,52.995537 80.276154,53.134209 
	C86.624687,54.639423 89.226318,49.746368 92.710548,46.207855 
	C99.210854,39.606297 109.337074,39.899059 114.786491,47.527836 
	C117.231064,50.950069 119.939964,52.295784 123.609039,52.936115 
	C124.540703,53.098717 126.110161,53.330116 126.235367,53.822590 
	C127.721565,59.667946 132.412033,57.557171 135.951279,57.666615 
	C141.494736,57.838028 146.898071,57.905792 150.470474,63.922077 
	C150.743088,72.364265 151.101532,80.099487 151.092972,87.834305 
	C151.081116,98.557861 150.793518,109.281105 150.623978,120.004486 
	C150.027893,120.306534 149.431808,120.608582 148.350769,120.641357 
	C144.905899,120.098778 144.344330,118.320061 144.366226,115.615036 
	C144.478867,101.708664 144.464951,87.800468 144.352051,73.894058 
	C144.337204,72.064812 143.500702,70.242226 143.125504,68.160896 
	C142.830963,67.582512 142.455688,67.259796 141.923599,66.603058 
	C141.110809,65.853294 140.434967,65.051514 139.802032,65.084053 
	C135.485748,65.306000 131.178513,65.703415 126.417580,66.079857 
	C126.220863,67.739273 125.976547,69.800308 125.503479,71.943924 
	C125.010788,72.251617 124.869881,72.537460 124.902557,72.892273 
	C124.953125,72.900505 124.968605,72.799225 124.499268,72.823395 
	C109.688011,72.888191 95.346092,72.928818 81.005341,72.986496 
	C81.006508,73.003548 81.022011,72.971611 80.923576,72.770996 
	C80.475517,72.705109 80.125900,72.839821 79.616653,72.945358 
	C79.457039,72.916183 79.135117,72.957146 79.135117,72.957146 
	C79.135117,72.957146 79.190437,72.923073 79.111740,72.490372 
	C77.736740,70.174721 80.310104,66.266006 75.428482,65.957481 
	C71.387512,65.950966 67.793526,66.012939 63.806725,66.015106 
	C62.313927,68.112534 60.272137,70.262878 60.256306,72.428032 
	C60.044682,101.371956 60.089550,130.318039 60.190220,159.263168 
	C60.195713,160.842316 61.254894,162.417786 61.900566,164.383789 
	C63.770634,165.802490 65.551079,167.700699 67.358810,167.727051 
	C84.260193,167.973389 101.166245,167.898804 118.043030,167.953186 
	C118.015121,167.989258 118.090294,167.937515 118.163437,168.278503 
	C118.786232,169.451508 119.335884,170.283554 119.915573,171.111145 
	C119.945610,171.106720 119.906166,171.060532 119.939438,171.403168 
	C120.642929,172.338928 121.313133,172.932068 121.972641,173.729263 
	C122.005180,174.216187 122.136414,174.449554 121.863159,174.731339 
	C101.803963,174.931000 82.237251,175.032761 62.560261,175.040314 
	C62.449989,174.946136 62.159973,174.949875 62.031349,174.758820 
	C61.564613,174.705292 61.226509,174.842804 60.590511,174.823135 
	C58.059875,171.760239 55.827129,168.854492 53.563667,165.482300 
	C53.482750,139.914841 53.274937,114.812645 53.462589,89.713402 
	C53.534210,80.134254 51.576717,70.277199 56.158234,61.091305 
	C56.158234,61.091305 56.095448,61.056519 56.476372,61.066895 
	C61.486420,57.243595 67.049011,58.212025 72.417946,57.802410 
	C74.345764,57.655334 76.150467,55.894371 78.011353,54.869965 
M99.613792,63.134830 
	C104.427307,64.525139 108.930595,63.213398 109.898972,59.552578 
	C110.948654,55.584358 109.228539,52.431442 105.726738,50.037636 
	C101.813698,47.362709 99.173904,49.549572 96.673256,52.026253 
	C93.593819,55.076180 94.455162,58.931419 99.613792,63.134830 
z"/>
<path fill="#030406" opacity="1.000000" stroke="none" 
	d="
M171.023727,153.927338 
	C170.829330,154.655884 170.634918,155.384445 170.278259,156.797821 
	C168.371490,161.111465 167.017944,165.002426 164.798294,168.312668 
	C160.610931,174.557449 147.509354,179.037064 140.601288,176.825607 
	C134.506531,174.874527 129.545593,171.207596 125.859436,165.674133 
	C125.628609,165.231171 125.354332,165.067062 125.049927,164.918884 
	C125.019791,164.934784 125.086067,164.950546 125.110909,164.613495 
	C124.777740,164.019424 124.419731,163.762405 124.045914,163.318573 
	C123.891701,162.885239 123.681618,162.773483 123.399841,162.796478 
	C123.400047,156.808075 122.341217,150.568512 123.685776,144.898911 
	C125.153961,138.707977 128.416153,132.695709 136.012787,130.083023 
	C142.642044,126.955910 148.771133,127.541420 154.946442,128.857208 
	C161.416595,132.158859 166.600525,136.692886 169.342438,144.302002 
	C170.007935,147.899979 170.515823,150.913651 171.023727,153.927338 
M145.391937,151.111496 
	C145.128769,151.431534 144.865585,151.751572 144.367981,152.166214 
	C144.218567,152.265900 144.129471,152.404388 143.524841,152.944382 
	C142.952713,153.313980 142.380585,153.683578 141.244904,153.697784 
	C139.758438,152.421844 138.446793,150.729492 136.727661,150.007767 
	C135.457245,149.474426 133.068039,149.665863 132.268127,150.536560 
	C131.568298,151.298309 131.864716,153.836395 132.647842,154.919952 
	C134.272919,157.168488 136.551468,158.935837 138.491043,160.968124 
	C141.313232,163.925201 144.113647,164.004883 146.980209,161.074524 
	C151.411789,156.544327 155.911652,152.076859 160.199234,147.414230 
	C160.836807,146.720886 160.473419,145.107147 160.309265,143.272888 
	C158.188995,143.171173 156.068710,143.069473 153.998306,142.996521 
	C153.998306,142.996521 153.974228,142.944244 153.336426,143.157410 
	C150.872437,145.761856 148.408447,148.366302 145.996948,150.997025 
	C145.996948,150.997025 145.992615,150.938477 145.391937,151.111496 
z"/>
<path fill="#115EEA" opacity="1.000000" stroke="none" 
	d="
M125.815987,165.953003 
	C129.545593,171.207596 134.506531,174.874527 140.601288,176.825607 
	C147.509354,179.037064 160.610931,174.557449 164.798294,168.312668 
	C167.017944,165.002426 168.371490,161.111465 170.291748,157.178162 
	C170.777161,157.262756 171.275360,157.611801 171.367783,158.047058 
	C172.446823,163.127625 165.070740,176.399628 160.335114,178.407974 
	C156.895569,179.866684 153.770889,182.562973 150.240723,183.172760 
	C146.749054,183.775894 142.919037,182.492462 139.249573,181.953827 
	C138.013916,181.772461 136.832382,181.214035 135.596436,181.044815 
	C133.181137,180.714111 130.744934,180.536072 126.996521,180.163589 
	C124.259865,180.821487 120.004372,182.320114 115.640640,182.770966 
	C110.399040,183.312485 105.062225,183.092270 99.771988,182.970108 
	C88.636681,182.713028 77.501976,181.977234 66.372665,182.075760 
	C59.166210,182.139557 53.992016,174.574921 52.419849,166.338867 
	C53.069172,165.953232 53.331776,165.951004 53.594383,165.948761 
	C55.827129,168.854492 58.059875,171.760239 60.909660,174.848877 
	C61.737793,175.004486 61.948883,174.977173 62.159973,174.949875 
	C62.159973,174.949875 62.449989,174.946136 62.742714,175.249008 
	C63.345520,175.748474 63.655602,175.945084 64.339798,176.324005 
	C65.692902,176.674988 66.671715,176.989471 67.650887,176.990585 
	C84.642754,177.009796 101.634743,177.012299 118.626381,176.940598 
	C120.075211,176.934479 121.521713,176.377899 122.958900,175.806519 
	C122.750885,175.235138 122.553261,174.934280 122.355637,174.633438 
	C122.136414,174.449554 122.005180,174.216187 121.902504,173.385406 
	C121.197426,172.245163 120.551796,171.652847 119.906166,171.060532 
	C119.906166,171.060532 119.945610,171.106720 119.933060,170.775772 
	C119.310432,169.609055 118.700363,168.773285 118.090294,167.937515 
	C118.090294,167.937515 118.015121,167.989258 118.035843,167.658112 
	C117.953293,166.948853 117.850014,166.570724 117.746735,166.192612 
	C119.441490,165.224258 121.136238,164.255920 123.115417,163.042023 
	C123.681618,162.773483 123.891701,162.885239 124.205856,163.567413 
	C124.616425,164.318878 124.851250,164.634720 125.086067,164.950546 
	C125.086067,164.950546 125.019791,164.934784 125.164398,165.099976 
	C125.464798,165.504166 125.633797,165.733459 125.815987,165.953003 
z"/>
<path fill="#0E5FEE" opacity="1.000000" stroke="none" 
	d="
M79.117409,73.349243 
	C79.135117,72.957146 79.457039,72.916183 79.928795,72.976051 
	C80.607704,73.014488 80.814857,72.993050 81.022011,72.971611 
	C81.022011,72.971611 81.006508,73.003548 81.359207,73.200943 
	C95.391647,73.540886 109.071281,73.699692 122.751389,73.781204 
	C123.488480,73.785591 124.229439,73.141464 124.968605,72.799225 
	C124.968605,72.799225 124.953125,72.900505 125.195450,72.875763 
	C125.630875,72.820862 125.823990,72.790695 126.258400,72.800499 
	C126.499702,72.840469 126.983086,72.915527 126.986526,73.301270 
	C126.994270,74.458549 126.998581,75.230087 127.002892,76.001633 
	C122.355232,77.001007 117.749199,78.497147 113.050789,78.890846 
	C104.645302,79.595154 96.182327,79.594025 87.746880,79.966835 
	C81.716454,80.233360 80.054070,79.094910 79.117409,73.349243 
z"/>
<path fill="#6581B8" opacity="1.000000" stroke="none" 
	d="
M61.823597,163.994965 
	C61.254894,162.417786 60.195713,160.842316 60.190220,159.263168 
	C60.089550,130.318039 60.044682,101.371956 60.256306,72.428032 
	C60.272137,70.262878 62.313927,68.112534 63.674767,66.253555 
	C63.670090,67.018509 63.404556,67.485229 63.139023,67.951942 
	C63.139023,67.951942 62.952141,68.337975 62.687302,68.922554 
	C62.254692,70.984474 61.941559,72.461716 61.940620,73.939163 
	C61.921928,103.361488 61.939301,132.783844 61.922771,162.504547 
	C61.871979,163.200256 61.847786,163.597610 61.823597,163.994965 
z"/>
<path fill="#090C10" opacity="1.000000" stroke="none" 
	d="
M102.927505,126.043663 
	C100.916107,124.582268 96.445175,125.152489 99.072235,120.232025 
	C108.538780,119.929344 117.260574,119.865135 125.982437,119.811447 
	C129.922714,119.787193 131.312912,121.235817 128.859665,124.863136 
	C128.859665,124.863136 128.927383,124.875145 128.526794,124.838638 
	C126.865662,125.107529 125.611298,125.646194 124.343582,125.679688 
	C117.206665,125.868202 110.066536,125.935211 102.927505,126.043663 
z"/>
<path fill="#03050A" opacity="1.000000" stroke="none" 
	d="
M102.031868,101.052483 
	C102.031868,101.052483 101.666016,100.989792 101.263992,100.678177 
	C100.318542,99.470741 99.775124,98.574913 99.231705,97.679092 
	C100.536316,97.085190 101.831284,96.003075 103.147095,95.977104 
	C111.305321,95.816025 119.470207,95.792648 127.628296,95.954445 
	C129.870865,95.998924 132.578506,96.355789 131.657898,99.953888 
	C128.801193,100.291771 125.949608,100.856598 123.086731,100.921326 
	C116.698395,101.065750 110.304413,100.960548 103.206863,100.931290 
	C102.500992,100.905518 102.031868,101.052483 102.031868,101.052483 
z"/>
<path fill="#0A0C10" opacity="1.000000" stroke="none" 
	d="
M86.629112,145.520996 
	C86.629112,145.520996 86.173576,145.672760 86.173576,145.672760 
	C86.173576,145.672760 86.289421,146.137939 86.209419,146.458374 
	C84.083763,148.876343 82.038109,150.973877 79.992462,153.071426 
	C75.206551,152.188538 74.081116,148.581757 74.494499,144.629272 
	C74.870483,141.034332 78.150749,140.283936 80.947693,141.061310 
	C82.775833,141.569427 84.150055,143.710663 86.085022,145.292664 
	C86.442444,145.464920 86.629112,145.520996 86.629112,145.520996 
z"/>
<path fill="#101317" opacity="1.000000" stroke="none" 
	d="
M80.652039,104.705246 
	C76.944168,102.860710 73.431015,100.941185 72.142433,96.136444 
	C73.642647,96.136444 74.719582,95.828285 75.487000,96.185341 
	C81.466705,98.967545 81.880981,98.885124 86.206673,93.121109 
	C89.070351,89.305244 89.603912,89.250107 93.060257,92.772858 
	C89.032570,96.685699 85.000542,100.602745 80.652039,104.705246 
z"/>
<path fill="#306DE0" opacity="1.000000" stroke="none" 
	d="
M53.563667,165.482300 
	C53.331776,165.951004 53.069172,165.953232 52.412926,165.947815 
	C52.019279,165.940170 52.015980,165.473938 52.013115,164.984619 
	C52.007610,164.324524 52.004971,164.153748 52.002327,163.982971 
	C52.002811,163.544052 52.003292,163.105118 52.002670,162.001007 
	C51.995560,160.887833 51.989559,160.439850 51.983562,159.991882 
	C51.984268,159.550293 51.984974,159.108688 51.989906,157.907043 
	C51.982182,155.431534 51.970226,153.716064 51.958267,152.000610 
	C51.963898,136.310608 51.969524,120.620598 51.960217,104.461105 
	C51.951511,103.549843 51.957741,103.108063 51.973419,101.866768 
	C51.973175,95.376648 51.963486,89.686043 51.953796,83.995438 
	C51.959492,82.605850 51.965191,81.216263 51.974640,79.000267 
	C51.659466,76.111511 51.340538,74.049164 51.021610,71.986816 
	C50.780243,67.693062 51.535675,63.813931 55.820351,61.176769 
	C51.576717,70.277199 53.534210,80.134254 53.462589,89.713402 
	C53.274937,114.812645 53.482750,139.914841 53.563667,165.482300 
z"/>
<path fill="#316AB5" opacity="1.000000" stroke="none" 
	d="
M61.900566,164.383789 
	C61.847786,163.597610 61.871979,163.200256 62.155945,162.498016 
	C62.415722,162.193130 62.880909,162.217117 62.880909,162.217117 
	C63.602741,165.491165 65.921577,166.161972 68.892426,166.153503 
	C84.881210,166.107956 100.870209,166.142258 117.302933,166.170807 
	C117.850014,166.570724 117.953293,166.948853 118.063759,167.622040 
	C101.166245,167.898804 84.260193,167.973389 67.358810,167.727051 
	C65.551079,167.700699 63.770634,165.802490 61.900566,164.383789 
z"/>
<path fill="#090B0D" opacity="1.000000" stroke="none" 
	d="
M83.109512,117.578369 
	C84.216080,120.188240 85.660332,122.431305 85.736641,124.719971 
	C85.770981,125.749725 83.221924,127.334663 81.586311,127.856194 
	C77.854912,129.045959 74.216927,126.590759 74.734322,122.617393 
	C75.011330,120.490074 78.044884,118.619148 80.058723,116.894379 
	C80.547760,116.475540 81.922234,117.090523 83.109512,117.578369 
z"/>
<path fill="#547BBA" opacity="1.000000" stroke="none" 
	d="
M150.860291,120.082924 
	C150.793518,109.281105 151.081116,98.557861 151.092972,87.834305 
	C151.101532,80.099487 150.743088,72.364265 150.695084,64.220749 
	C151.411301,64.782494 151.980789,65.752708 152.727936,67.399628 
	C152.948471,85.012497 152.991318,101.948654 153.034180,118.884819 
	C152.388321,119.310333 151.742477,119.735847 150.860291,120.082924 
z"/>
<path fill="#0A1115" opacity="1.000000" stroke="none" 
	d="
M99.669891,148.589447 
	C96.200813,145.176865 98.841644,144.109375 101.476929,143.817535 
	C104.915573,143.436707 108.431313,143.598862 111.902176,143.767914 
	C112.789688,143.811142 113.633072,144.760223 114.496735,145.293121 
	C113.811600,146.224808 113.206146,147.881348 112.427971,147.966904 
	C108.332634,148.417130 104.193672,148.470581 99.669891,148.589447 
z"/>
<path fill="#1B5CE4" opacity="1.000000" stroke="none" 
	d="
M62.907585,161.728165 
	C62.880909,162.217117 62.415722,162.193130 62.182549,162.199661 
	C61.939301,132.783844 61.921928,103.361488 61.940620,73.939163 
	C61.941559,72.461716 62.254692,70.984474 62.639717,69.131653 
	C62.882736,99.583855 62.908497,130.411530 62.907585,161.728165 
z"/>
<path fill="#235DC3" opacity="1.000000" stroke="none" 
	d="
M129.215607,124.826157 
	C131.312912,121.235817 129.922714,119.787193 125.982437,119.811447 
	C117.260574,119.865135 108.538780,119.929344 99.331100,119.973312 
	C99.628769,119.397301 100.406372,118.360146 101.196754,118.350311 
	C109.983559,118.241020 118.776909,118.151863 127.555908,118.440170 
	C128.946838,118.485847 130.523849,120.250107 131.482086,121.598404 
	C131.770599,122.004364 130.258698,123.689842 129.215607,124.826157 
z"/>
<path fill="#105FF0" opacity="1.000000" stroke="none" 
	d="
M142.080399,66.937073 
	C142.455688,67.259796 142.830963,67.582512 143.078613,68.562790 
	C142.923782,69.488403 142.896561,69.756454 142.714249,70.296432 
	C142.369583,71.380997 142.180008,72.193634 141.990448,73.006271 
	C137.928024,72.349075 133.865631,71.691887 129.402435,70.619087 
	C129.027328,69.138519 129.052994,68.073555 129.513733,66.959404 
	C132.592194,66.929337 135.235580,66.948463 138.112946,67.145889 
	C138.692856,67.512093 139.038788,67.699997 139.834137,67.728973 
	C140.882492,67.359055 141.481445,67.148064 142.080399,66.937073 
z"/>
<path fill="#30599D" opacity="1.000000" stroke="none" 
	d="
M131.980621,99.893166 
	C132.578506,96.355789 129.870865,95.998924 127.628296,95.954445 
	C119.470207,95.792648 111.305321,95.816025 103.147095,95.977104 
	C101.831284,96.003075 100.536316,97.085190 99.231705,97.679092 
	C99.775124,98.574913 100.318542,99.470741 101.078445,100.673630 
	C100.063644,100.035522 98.832359,99.090347 97.601067,98.145172 
	C98.646187,97.053207 99.594849,95.158051 100.754387,95.018776 
	C104.338890,94.588272 108.003761,94.810097 111.637421,94.809601 
	C117.271530,94.808823 122.909256,94.715134 128.538544,94.887123 
	C132.636887,95.012329 133.328705,96.097961 131.980621,99.893166 
z"/>
<path fill="#477AD8" opacity="1.000000" stroke="none" 
	d="
M142.869339,70.024506 
	C142.896561,69.756454 142.923782,69.488403 142.997864,68.818451 
	C143.500702,70.242226 144.337204,72.064812 144.352051,73.894058 
	C144.464951,87.800468 144.478867,101.708664 144.366226,115.615036 
	C144.344330,118.320061 144.905899,120.098778 148.100372,120.698586 
	C146.754807,120.793205 145.174667,120.561333 143.283173,119.654465 
	C142.937653,102.661148 142.903503,86.342827 142.869339,70.024506 
z"/>
<path fill="#1A60DF" opacity="1.000000" stroke="none" 
	d="
M153.230408,118.535889 
	C152.991318,101.948654 152.948471,85.012497 152.899323,67.627953 
	C153.262436,68.857368 153.631821,70.535164 154.006729,72.604599 
	C154.010574,86.095100 154.032867,99.194046 153.981339,112.292702 
	C153.973602,114.258148 153.620178,116.222244 153.230408,118.535889 
z"/>
<path fill="#155DDE" opacity="1.000000" stroke="none" 
	d="
M142.714249,70.296432 
	C142.903503,86.342827 142.937653,102.661148 142.954712,119.435379 
	C142.628036,117.797150 142.063950,115.704659 142.050369,113.608612 
	C141.964752,100.386894 142.001312,87.164391 141.993973,73.474213 
	C142.180008,72.193634 142.369583,71.380997 142.714249,70.296432 
z"/>
<path fill="#105DEA" opacity="1.000000" stroke="none" 
	d="
M63.496071,68.053116 
	C63.404556,67.485229 63.670090,67.018509 64.067581,66.313354 
	C67.793526,66.012939 71.387512,65.950966 75.478859,66.368492 
	C76.019989,68.222969 76.063766,69.597939 76.107536,70.972916 
	C72.022728,70.033379 67.937927,69.093834 63.496071,68.053116 
z"/>
<path fill="#315FB6" opacity="1.000000" stroke="none" 
	d="
M154.750870,128.569901 
	C148.771133,127.541420 142.642044,126.955910 136.345932,129.926971 
	C140.338867,125.258743 147.997986,124.615654 154.750870,128.569901 
z"/>
<path fill="#235DC3" opacity="1.000000" stroke="none" 
	d="
M103.305313,126.223511 
	C110.066536,125.935211 117.206665,125.868202 124.343582,125.679688 
	C125.611298,125.646194 126.865662,125.107529 128.524811,124.804306 
	C127.696083,125.493217 126.472099,126.763428 125.240791,126.770569 
	C118.055847,126.812225 110.869194,126.557800 103.305313,126.223511 
z"/>
<path fill="#1261E6" opacity="1.000000" stroke="none" 
	d="
M80.040115,153.426743 
	C82.038109,150.973877 84.083763,148.876343 86.424744,146.559952 
	C86.236465,148.857758 85.926163,151.426834 85.188400,153.866653 
	C84.870125,154.919189 83.667557,155.704330 82.866707,156.610947 
	C81.940399,155.667984 81.014091,154.725021 80.040115,153.426743 
z"/>
<path fill="#1768F8" opacity="1.000000" stroke="none" 
	d="
M45.777088,148.733093 
	C44.646053,149.199692 43.580906,149.334915 42.515762,149.470154 
	C42.855854,148.322830 43.195946,147.175491 43.536034,146.028168 
	C44.305012,146.819351 45.073994,147.610550 45.777088,148.733093 
z"/>
<path fill="#1F5AC2" opacity="1.000000" stroke="none" 
	d="
M76.290138,71.225571 
	C76.063766,69.597939 76.019989,68.222969 75.925842,66.436981 
	C80.310104,66.266006 77.736740,70.174721 79.093536,72.463470 
	C78.260262,72.405586 77.366501,71.941902 76.290138,71.225571 
z"/>
<path fill="#115EEA" opacity="1.000000" stroke="none" 
	d="
M171.218170,153.619324 
	C170.515823,150.913651 170.007935,147.899979 169.566803,144.566772 
	C175.642456,146.205612 171.404572,150.175140 171.218170,153.619324 
z"/>
<path fill="#145FEE" opacity="1.000000" stroke="none" 
	d="
M51.666130,152.173004 
	C51.970226,153.716064 51.982182,155.431534 51.984200,157.575882 
	C49.526264,156.356735 49.420536,154.460266 51.666130,152.173004 
z"/>
<path fill="#105FF0" opacity="1.000000" stroke="none" 
	d="
M127.320663,75.953995 
	C126.998581,75.230087 126.994270,74.458549 127.123665,73.125618 
	C127.456192,72.341286 127.674690,72.139648 128.185211,71.972839 
	C128.639282,71.992516 128.820984,71.998680 129.002686,72.004845 
	C128.547928,73.305351 128.093185,74.605850 127.320663,75.953995 
z"/>
<path fill="#155DDE" opacity="1.000000" stroke="none" 
	d="
M129.002930,71.754257 
	C128.820984,71.998680 128.639282,71.992516 128.217651,71.600357 
	C128.344696,69.812447 128.711685,68.410515 129.078674,67.008591 
	C129.052994,68.073555 129.027328,69.138519 129.004456,70.602997 
	C129.005890,71.169571 129.004532,71.336624 129.002930,71.754257 
z"/>
<path fill="#145FEE" opacity="1.000000" stroke="none" 
	d="
M51.773521,160.082047 
	C51.989559,160.439850 51.995560,160.887833 51.995766,161.671860 
	C51.847805,161.396011 51.705643,160.784119 51.773521,160.082047 
z"/>
<path fill="#1261E6" opacity="1.000000" stroke="none" 
	d="
M86.445068,145.367493 
	C86.643372,145.036942 86.839058,144.803802 87.034737,144.570663 
	C86.989967,144.809128 86.945198,145.047592 86.764771,145.403534 
	C86.629112,145.520996 86.442444,145.464920 86.445068,145.367493 
z"/>
<path fill="#145FEE" opacity="1.000000" stroke="none" 
	d="
M51.936150,164.104874 
	C52.004971,164.153748 52.007610,164.324524 52.007317,164.751556 
	C51.831673,164.766205 51.786869,164.505844 51.936150,164.104874 
z"/>
<path fill="#30599D" opacity="1.000000" stroke="none" 
	d="
M102.130440,101.154755 
	C102.031868,101.052483 102.500992,100.905518 102.737946,100.969086 
	C102.974907,101.032654 102.645981,101.277824 102.645981,101.277824 
	C102.645981,101.277824 102.229012,101.257027 102.130440,101.154755 
z"/>
<path fill="#1463F3" opacity="1.000000" stroke="none" 
	d="
M184.108124,102.168892 
	C181.973389,101.781883 179.853882,101.571838 178.528976,100.435417 
	C178.032135,100.009262 178.942459,96.909004 180.026657,95.991310 
	C180.938614,95.219391 183.033096,95.844528 184.604080,95.851204 
	C184.549133,97.893341 184.494171,99.935471 184.108124,102.168892 
z"/>
<path fill="#1463F3" opacity="1.000000" stroke="none" 
	d="
M51.587357,84.080460 
	C51.963486,89.686043 51.973175,95.376648 51.968552,101.535332 
	C51.222263,101.676964 50.246395,101.547081 49.798656,100.991547 
	C47.265930,97.849014 48.223923,87.269089 51.587357,84.080460 
z"/>
<path fill="#306DE0" opacity="1.000000" stroke="none" 
	d="
M77.609879,55.001701 
	C76.150467,55.894371 74.345764,57.655334 72.417946,57.802410 
	C67.049011,58.212025 61.486420,57.243595 56.480370,61.102558 
	C57.456200,56.749043 61.193489,56.408123 64.846886,56.063038 
	C68.959961,55.674541 73.087288,55.436775 77.609879,55.001701 
z"/>
<path fill="#1463F3" opacity="1.000000" stroke="none" 
	d="
M50.836281,72.308304 
	C51.340538,74.049164 51.659466,76.111511 51.965118,78.583450 
	C51.518215,76.871956 51.084587,74.750877 50.836281,72.308304 
z"/>
<path fill="#1E64E3" opacity="1.000000" stroke="none" 
	d="
M99.229111,63.034149 
	C94.455162,58.931419 93.593819,55.076180 96.673256,52.026253 
	C99.173904,49.549572 101.813698,47.362709 105.726738,50.037636 
	C109.228539,52.431442 110.948654,55.584358 109.898972,59.552578 
	C108.930595,63.213398 104.427307,64.525139 99.229111,63.034149 
z"/>
<path fill="#91BAF0" opacity="1.000000" stroke="none" 
	d="
M121.863159,174.731339 
	C122.553261,174.934280 122.750885,175.235138 122.494507,175.780487 
	C102.682236,176.063873 83.323959,176.102783 63.965683,176.141693 
	C63.655602,175.945084 63.345520,175.748474 62.852985,175.343201 
	C82.237251,175.032761 101.803963,174.931000 121.863159,174.731339 
z"/>
<path fill="#1F5AC2" opacity="1.000000" stroke="none" 
	d="
M124.499268,72.823395 
	C124.229439,73.141464 123.488480,73.785591 122.751389,73.781204 
	C109.071281,73.699692 95.391647,73.540886 81.358032,73.183891 
	C95.346092,72.928818 109.688011,72.888191 124.499268,72.823395 
z"/>
<path fill="#4B75BF" opacity="1.000000" stroke="none" 
	d="
M129.513733,66.959404 
	C128.711685,68.410515 128.344696,69.812447 127.945282,71.586853 
	C127.674690,72.139648 127.456192,72.341286 127.120224,72.739883 
	C126.983086,72.915527 126.499702,72.840469 126.200623,72.572922 
	C125.901535,72.305367 125.732224,71.861343 125.732224,71.861343 
	C125.976547,69.800308 126.220863,67.739273 126.417580,66.079857 
	C131.178513,65.703415 135.485748,65.306000 139.802032,65.084053 
	C140.434967,65.051514 141.110809,65.853294 141.923599,66.603058 
	C141.481445,67.148064 140.882492,67.359055 139.616760,67.520416 
	C138.592987,67.303047 138.235977,67.135315 137.878983,66.967583 
	C135.235580,66.948463 132.592194,66.929337 129.513733,66.959404 
z"/>
<path fill="#316AB5" opacity="1.000000" stroke="none" 
	d="
M118.163437,168.278503 
	C118.700363,168.773285 119.310432,169.609055 119.903015,170.780212 
	C119.335884,170.283554 118.786232,169.451508 118.163437,168.278503 
z"/>
<path fill="#316AB5" opacity="1.000000" stroke="none" 
	d="
M119.939438,171.403168 
	C120.551796,171.652847 121.197426,172.245163 121.913193,173.181335 
	C121.313133,172.932068 120.642929,172.338928 119.939438,171.403168 
z"/>
<path fill="#1F5AC2" opacity="1.000000" stroke="none" 
	d="
M80.923576,72.770996 
	C80.814857,72.993050 80.607704,73.014488 80.088409,73.005226 
	C80.125900,72.839821 80.475517,72.705109 80.923576,72.770996 
z"/>
<path fill="#1F5AC2" opacity="1.000000" stroke="none" 
	d="
M125.503479,71.943924 
	C125.732224,71.861343 125.901535,72.305367 125.959320,72.532944 
	C125.823990,72.790695 125.630875,72.820862 125.144882,72.867523 
	C124.869881,72.537460 125.010788,72.251617 125.503479,71.943924 
z"/>
<path fill="#205BC5" opacity="1.000000" stroke="none" 
	d="
M62.031349,174.758820 
	C61.948883,174.977173 61.737793,175.004486 61.207550,175.006042 
	C61.226509,174.842804 61.564613,174.705292 62.031349,174.758820 
z"/>
<path fill="#1D65E8" opacity="1.000000" stroke="none" 
	d="
M144.100693,152.581696 
	C144.129471,152.404388 144.218567,152.265900 144.811890,152.066315 
	C145.501404,151.623764 145.747009,151.281128 145.992615,150.938477 
	C145.992615,150.938477 145.996948,150.997025 146.323151,151.020279 
	C149.090973,148.343765 151.532593,145.644012 153.974228,142.944244 
	C153.974228,142.944244 153.998306,142.996521 154.351410,143.070236 
	C156.660721,143.402374 158.616913,143.660782 160.573120,143.919205 
	C160.473419,145.107147 160.836807,146.720886 160.199234,147.414230 
	C155.911652,152.076859 151.411789,156.544327 146.980209,161.074524 
	C144.113647,164.004883 141.313232,163.925201 138.491043,160.968124 
	C136.551468,158.935837 134.272919,157.168488 132.647842,154.919952 
	C131.864716,153.836395 131.568298,151.298309 132.268127,150.536560 
	C133.068039,149.665863 135.457245,149.474426 136.727661,150.007767 
	C138.446793,150.729492 139.758438,152.421844 141.786163,154.076355 
	C142.918518,153.830505 143.509613,153.206100 144.100693,152.581696 
z"/>
<path fill="#698DC2" opacity="1.000000" stroke="none" 
	d="
M153.655334,143.050827 
	C151.532593,145.644012 149.090973,148.343765 146.296906,151.007141 
	C148.408447,148.366302 150.872437,145.761856 153.655334,143.050827 
z"/>
<path fill="#698DC2" opacity="1.000000" stroke="none" 
	d="
M160.441193,143.596039 
	C158.616913,143.660782 156.660721,143.402374 154.326477,143.055847 
	C156.068710,143.069473 158.188995,143.171173 160.441193,143.596039 
z"/>
<path fill="#698DC2" opacity="1.000000" stroke="none" 
	d="
M143.812775,152.763031 
	C143.509613,153.206100 142.918518,153.830505 142.067932,154.254044 
	C142.380585,153.683578 142.952713,153.313980 143.812775,152.763031 
z"/>
<path fill="#1463F3" opacity="1.000000" stroke="none" 
	d="
M125.859436,165.674133 
	C125.633797,165.733459 125.464798,165.504166 125.194534,165.084061 
	C125.354332,165.067062 125.628609,165.231171 125.859436,165.674133 
z"/>
<path fill="#1463F3" opacity="1.000000" stroke="none" 
	d="
M125.110909,164.613495 
	C124.851250,164.634720 124.616425,164.318878 124.221664,163.754211 
	C124.419731,163.762405 124.777740,164.019424 125.110909,164.613495 
z"/>
<path fill="#698DC2" opacity="1.000000" stroke="none" 
	d="
M145.692276,151.024994 
	C145.747009,151.281128 145.501404,151.623764 144.929108,152.019012 
	C144.865585,151.751572 145.128769,151.431534 145.692276,151.024994 
z"/>
<path fill="#205BC5" opacity="1.000000" stroke="none" 
	d="
M64.339798,176.324020 
	C83.323959,176.102783 102.682236,176.063873 122.504898,176.051010 
	C121.521713,176.377899 120.075211,176.934479 118.626381,176.940598 
	C101.634743,177.012299 84.642754,177.009796 67.650887,176.990585 
	C66.671715,176.989471 65.692902,176.674988 64.339798,176.324020 
z"/>
<path fill="#155DDE" opacity="1.000000" stroke="none" 
	d="
M138.112946,67.145889 
	C138.235977,67.135315 138.592987,67.303047 139.167358,67.679337 
	C139.038788,67.699997 138.692856,67.512093 138.112946,67.145889 
z"/>
</svg>